<?xml version="1.0" standalone="no"?>
<!DOCTYPE svg PUBLIC "-//W3C//DTD SVG 20010904//EN"
 "http://www.w3.org/TR/2001/REC-SVG-20010904/DTD/svg10.dtd">
<svg version="1.0" xmlns="http://www.w3.org/2000/svg"
 width="558.000000pt" height="558.000000pt" viewBox="0 0 558.000000 558.000000"
 preserveAspectRatio="xMidYMid meet">
<metadata>
Created by potrace 1.14, written by Peter Selinger 2001-2017
</metadata>
<g transform="translate(0.000000,558.000000) scale(0.100000,-0.100000)"
fill="#000000" stroke="none">
<path d="M956 5569 c-235 -35 -459 -149 -629 -320 -146 -147 -237 -308 -296
-518 l-26 -96 0 -1845 0 -1845 27 -97 c58 -209 154 -377 299 -521 147 -146
308 -237 518 -296 l96 -26 1845 0 1845 0 97 27 c209 58 377 154 521 299 146
147 237 308 296 518 l26 96 0 1845 0 1845 -27 97 c-58 209 -154 377 -299 521
-147 146 -308 237 -518 296 l-96 26 -1810 1 c-995 1 -1837 -2 -1869 -7z m1952
-1094 l113 -756 -113 -379 c-62 -209 -115 -380 -118 -380 -3 0 -56 171 -118
379 l-113 380 113 755 c62 416 115 756 118 756 3 0 56 -340 118 -755z m1605
53 c-6 -7 -207 -283 -448 -613 -240 -330 -444 -608 -453 -617 -10 -9 -145 -87
-302 -173 -157 -86 -314 -172 -349 -192 l-64 -35 64 118 c35 66 120 226 190
358 l127 239 618 463 c341 255 621 463 623 464 2 0 -1 -6 -6 -12z m-2848 -463
c330 -240 608 -444 617 -453 10 -10 90 -150 179 -312 88 -162 175 -319 191
-349 l31 -54 -129 69 c-71 37 -232 123 -358 190 l-230 123 -443 593 c-503 671
-492 657 -473 642 8 -6 285 -208 615 -449z m577 -1157 c208 -62 378 -115 378
-118 0 -3 -171 -56 -379 -118 l-380 -113 -755 113 c-416 62 -756 115 -756 118
0 5 1448 226 1495 229 11 1 189 -50 397 -111z m2230 0 c417 -62 758 -115 758
-118 0 -3 -340 -56 -755 -118 l-755 -113 -380 113 c-209 62 -380 115 -380 118
0 4 705 220 750 230 3 0 346 -50 762 -112z m-1861 -360 c-39 -73 -124 -233
-188 -356 l-118 -222 -604 -453 c-684 -511 -650 -487 -635 -467 6 8 208 285
449 615 240 330 444 608 453 617 13 13 694 394 710 397 2 1 -29 -59 -67 -131z
m782 -128 l217 -115 453 -604 c248 -333 459 -614 467 -625 10 -14 0 -10 -30
12 -25 18 -308 225 -629 460 l-585 427 -158 290 c-88 160 -175 319 -195 353
l-35 64 139 -74 c76 -40 236 -125 356 -188z m-485 -179 l113 -380 -113 -755
c-62 -416 -115 -756 -118 -756 -3 0 -56 340 -118 755 l-113 756 113 379 c62
209 115 380 118 380 3 0 56 -171 118 -379z"/>
</g>
</svg>
